HIERARCHY
ROOT __0
{
	OFFSET 0.0 0.0 0.0
	CHANNELS 0
	JOINT spine.003
	{
		OFFSET 0.000000 0.005900 -0.962630
		CHANNELS 6 Xposition Yposition Zposition Xrotation Yrotation Zrotation
		JOINT spine.004
		{
			OFFSET 0.000000 0.005500 0.722100
			CHANNELS 6 Xposition Yposition Zposition Xrotation Yrotation Zrotation
			End Site
			{
				OFFSET 0.000000 -0.011400 0.240468
			}
		}
		JOINT upper_arm.L
		{
			OFFSET 0.353845 0.001758 0.555896
			CHANNELS 6 Xposition Yposition Zposition Xrotation Yrotation Zrotation
			JOINT forearm.L
			{
				OFFSET 0.222524 -0.007658 0.004139
				CHANNELS 3 Xrotation Yrotation Zrotation
				JOINT hand.L
				{
					OFFSET 0.162923 0.000000 -0.001895
					CHANNELS 3 Xrotation Yrotation Zrotation
					End Site
					{
						OFFSET 0.259023 0.000000 -0.003416
					}
				}
			}
		}
		JOINT upper_arm.R
		{
			OFFSET -0.353845 0.001758 0.555896
			CHANNELS 6 Xposition Yposition Zposition Xrotation Yrotation Zrotation
			JOINT forearm.R
			{
				OFFSET -0.222524 -0.007658 0.004139
				CHANNELS 3 Xrotation Yrotation Zrotation
				JOINT hand.R
				{
					OFFSET -0.162923 0.000000 -0.001895
					CHANNELS 3 Xrotation Yrotation Zrotation
					End Site
					{
						OFFSET -0.259023 0.000000 -0.003416
					}
				}
			}
		}
	}
	JOINT thigh.L
	{
		OFFSET 0.247996 0.012400 -0.976727
		CHANNELS 6 Xposition Yposition Zposition Xrotation Yrotation Zrotation
		JOINT shin.L
		{
			OFFSET 0.001113 -0.041000 -0.307776
			CHANNELS 3 Xrotation Yrotation Zrotation
			End Site
			{
				OFFSET -0.001985 0.044800 -0.273070
			}
		}
	}
	JOINT thigh.R
	{
		OFFSET -0.247996 0.012400 -0.976727
		CHANNELS 6 Xposition Yposition Zposition Xrotation Yrotation Zrotation
		JOINT shin.R
		{
			OFFSET -0.001113 -0.041000 -0.307776
			CHANNELS 3 Xrotation Yrotation Zrotation
			End Site
			{
				OFFSET 0.001985 0.044800 -0.273070
			}
		}
	}
}
MOTION
Frames: 11
Frame Time: 0.041667
0.000000 0.005900 -0.962630 -0.000000 0.000000 -0.000000 0.000000 0.005500 0.722100 -0.000000 0.000000 -0.000000 0.353845 0.001758 0.555896 -0.000628 -0.018248 -0.000006 -0.000002 -0.312595 -0.000001 0.000001 -0.264443 -0.000000 -0.353845 0.001758 0.555896 -0.000628 0.018248 0.000006 -0.000002 0.312595 0.000001 0.000001 0.264443 0.000000 0.247996 0.012400 -0.976726 0.000000 -0.000000 0.000000 0.000001 0.000000 -0.000000 -0.247996 0.012400 -0.976726 0.000000 0.000000 -0.000000 0.000001 -0.000000 0.000000 
0.000000 0.005900 -0.962630 -0.000000 0.000000 -0.000000 0.000000 0.005500 0.722100 -0.000000 0.000000 -0.000000 0.353845 0.001758 0.555896 -0.010793 -0.313671 -0.000124 -0.000001 -1.209064 -0.000000 0.000001 -1.022373 -0.000000 -0.353845 0.001758 0.555896 -0.010793 0.313671 0.000124 -0.000001 1.209064 0.000000 0.000001 1.022373 0.000000 0.247996 0.012400 -0.976726 0.000000 -0.000000 0.000000 0.000001 0.000000 -0.000000 -0.247996 0.012400 -0.976726 0.000000 0.000000 -0.000000 0.000001 -0.000000 0.000000 
0.000000 0.005900 -0.962630 -0.000000 0.000000 -0.000000 0.000000 0.005500 0.722100 -0.000000 0.000000 -0.000000 0.353845 0.001758 0.555896 -0.026842 -0.779945 -0.000417 -0.000000 -2.629206 -0.000000 -0.000001 -2.221753 -0.000000 -0.353845 0.001758 0.555896 -0.026842 0.779945 0.000417 -0.000000 2.629206 0.000000 -0.000001 2.221753 0.000000 0.247996 0.012400 -0.976726 0.000000 -0.000000 0.000000 0.000001 0.000000 -0.000000 -0.247996 0.012400 -0.976726 0.000000 0.000000 -0.000000 0.000001 -0.000000 0.000000 
0.000000 0.005900 -0.962630 -0.000000 0.000000 -0.000000 0.000000 0.005500 0.722100 -0.000000 0.000000 -0.000000 0.353845 0.001758 0.555896 -0.048041 -1.395710 -0.001004 -0.000002 -4.513885 -0.000001 -0.000000 -3.811164 -0.000001 -0.353845 0.001758 0.555896 -0.048041 1.395710 0.001004 -0.000002 4.513885 0.000001 -0.000000 3.811164 0.000001 0.247996 0.012400 -0.976726 0.000000 -0.000000 0.000000 0.000001 0.000000 -0.000000 -0.247996 0.012400 -0.976726 0.000000 0.000000 -0.000000 0.000001 -0.000000 0.000000 
0.000000 0.005900 -0.962630 -0.000000 0.000000 -0.000000 0.000000 0.005500 0.722100 -0.000000 0.000000 -0.000000 0.353845 0.001758 0.555896 -0.073670 -2.139593 -0.002018 -0.000003 -6.803510 -0.000001 -0.000001 -5.738896 -0.000001 -0.353845 0.001758 0.555896 -0.073670 2.139593 0.002018 -0.000003 6.803510 0.000001 -0.000001 5.738896 0.000001 0.247996 0.012400 -0.976726 0.000000 -0.000000 0.000000 0.000001 0.000000 -0.000000 -0.247996 0.012400 -0.976726 0.000000 0.000000 -0.000000 0.000001 -0.000000 0.000000 
0.000000 0.005900 -0.962630 -0.000000 0.000000 -0.000000 0.000000 0.005500 0.722100 -0.000000 0.000000 -0.000000 0.353845 0.001758 0.555896 -0.103011 -2.990194 -0.003587 -0.000002 -9.436811 -0.000001 -0.000001 -7.952236 -0.000001 -0.353845 0.001758 0.555896 -0.103011 2.990194 0.003587 -0.000002 9.436811 0.000001 -0.000001 7.952236 0.000001 0.247996 0.012400 -0.976726 0.000000 -0.000000 0.000000 0.000001 0.000000 -0.000000 -0.247996 0.012400 -0.976726 0.000000 0.000000 -0.000000 0.000001 -0.000000 0.000000 
0.000000 0.005900 -0.962630 -0.000000 0.000000 -0.000000 0.000000 0.005500 0.722100 -0.000000 0.000000 -0.000000 0.353845 0.001758 0.555896 -0.135351 -3.926099 -0.005818 -0.000001 -12.350028 -0.000002 -0.000000 -10.396975 -0.000001 -0.353845 0.001758 0.555896 -0.135351 3.926099 0.005818 -0.000001 12.350028 0.000002 -0.000000 10.396975 0.000001 0.247996 0.012400 -0.976726 0.000000 -0.000000 0.000000 0.000001 0.000000 -0.000000 -0.247996 0.012400 -0.976726 0.000000 0.000000 -0.000000 0.000001 -0.000000 0.000000 
0.000000 0.005900 -0.962630 -0.000000 0.000000 -0.000000 0.000000 0.005500 0.722100 -0.000000 0.000000 -0.000000 0.353845 0.001758 0.555896 -0.169985 -4.925881 -0.008791 -0.000001 -15.476536 -0.000002 -0.000000 -13.017214 -0.000002 -0.353845 0.001758 0.555896 -0.169985 4.925881 0.008791 -0.000001 15.476536 0.000002 -0.000000 13.017214 0.000002 0.247996 0.012400 -0.976726 0.000000 -0.000000 0.000000 0.000001 0.000000 -0.000000 -0.247996 0.012400 -0.976726 0.000000 0.000000 -0.000000 0.000001 -0.000000 0.000000 
0.000000 0.005900 -0.962630 -0.000000 0.000000 -0.000000 0.000000 0.005500 0.722100 -0.000000 0.000000 -0.000000 0.353845 0.001758 0.555896 -0.206206 -5.968134 -0.012542 -0.000003 -18.747010 -0.000002 -0.000000 -15.755501 -0.000002 -0.353845 0.001758 0.555896 -0.206206 5.968134 0.012542 -0.000003 18.747010 0.000002 -0.000000 15.755501 0.000002 0.247996 0.012400 -0.976726 0.000000 -0.000000 0.000000 0.000001 0.000000 -0.000000 -0.247996 0.012400 -0.976726 0.000000 0.000000 -0.000000 0.000001 -0.000000 0.000000 
0.000000 0.005900 -0.962630 -0.000000 0.000000 -0.000000 0.000000 0.005500 0.722100 -0.000000 0.000000 -0.000000 0.353845 0.001758 0.555896 -0.243310 -7.031486 -0.017062 -0.000002 -22.090051 -0.000003 -0.000001 -18.553125 -0.000003 -0.353845 0.001758 0.555896 -0.243310 7.031486 0.017062 -0.000002 22.090051 0.000003 -0.000001 18.553125 0.000003 0.247996 0.012400 -0.976726 0.000000 -0.000000 0.000000 0.000001 0.000000 -0.000000 -0.247996 0.012400 -0.976726 0.000000 0.000000 -0.000000 0.000001 -0.000000 0.000000 
0.000000 0.005900 -0.962630 -0.000000 0.000000 -0.000000 0.000000 0.005500 0.722100 -0.000000 0.000000 -0.000000 0.353845 0.001758 0.555896 -0.280583 -8.094637 -0.022287 -0.000001 -25.433094 -0.000003 -0.000000 -21.350751 -0.000003 -0.353845 0.001758 0.555896 -0.280583 8.094637 0.022287 -0.000001 25.433094 0.000003 -0.000000 21.350751 0.000003 0.247996 0.012400 -0.976726 0.000000 -0.000000 0.000000 0.000001 0.000000 -0.000000 -0.247996 0.012400 -0.976726 0.000000 0.000000 -0.000000 0.000001 -0.000000 0.000000 
